<?xml version="1.0" standalone="no"?>
<!DOCTYPE svg PUBLIC "-//W3C//DTD SVG 20010904//EN"
 "http://www.w3.org/TR/2001/REC-SVG-20010904/DTD/svg10.dtd">
<svg version="1.0" xmlns="http://www.w3.org/2000/svg"
 width="96.000000pt" height="96.000000pt" viewBox="0 0 96.000000 96.000000"
 preserveAspectRatio="xMidYMid meet">

<g transform="translate(0.000000,96.000000) scale(0.100000,-0.100000)"
fill="#000000" stroke="none">
<path d="M381 949 c-184 -36 -344 -206 -374 -399 -39 -256 144 -503 403 -543
312 -48 591 231 543 543 -16 103 -61 190 -137 266 -118 118 -272 165 -435 133z
m55 -205 c-9 -8 -17 -27 -17 -42 -1 -18 -3 -21 -6 -9 -4 15 -7 16 -21 5 -10
-7 -7 -1 6 13 12 14 22 31 22 37 0 7 7 12 16 12 14 0 14 -1 0 -16z m-56 -18
c0 -2 -8 -10 -17 -17 -16 -13 -17 -12 -4 4 13 16 21 21 21 13z m225 -16 c10
-11 16 -20 13 -20 -3 0 -13 9 -23 20 -10 11 -16 20 -13 20 3 0 13 -9 23 -20z
m-251 -29 c3 -4 -4 -17 -16 -27 -12 -11 -19 -14 -16 -9 3 6 8 18 11 28 7 19
13 21 21 8z m46 -4 c0 -2 -10 -12 -22 -23 l-23 -19 19 23 c18 21 26 27 26 19z
m53 -43 l27 -31 -22 -18 c-21 -18 -22 -18 -6 -1 15 17 15 20 -8 43 -25 25 -26
25 -47 7 -19 -16 -18 -15 2 9 14 15 25 26 25 24 1 -1 13 -16 29 -33z m-108
-44 c-10 -11 -21 -18 -23 -15 -3 3 3 12 14 20 27 20 30 18 9 -5z m55 17 c0 -2
-10 -12 -22 -23 l-23 -19 19 23 c18 21 26 27 26 19z m40 0 c0 -2 -10 -12 -22
-23 l-23 -19 19 23 c18 21 26 27 26 19z m98 -76 l41 -49 -22 -18 c-22 -19 -22
-19 -5 1 14 17 14 22 2 33 -8 7 -19 10 -24 7 -6 -3 -7 1 -4 9 8 21 -4 20 -30
-1 -17 -14 -16 -13 2 8 l23 27 -22 16 c-13 9 -19 16 -13 16 6 0 29 -22 52 -49z
m-177 14 c11 6 11 5 2 -5 -12 -14 -33 -6 -33 13 0 8 3 7 9 -2 5 -8 14 -10 22
-6z m32 -17 c-19 -20 -19 -25 -7 -36 12 -11 18 -11 32 -1 15 11 15 11 -1 -6
-17 -19 -18 -19 -45 9 -15 16 -22 26 -16 23 6 -4 19 2 29 13 10 11 20 20 23
20 3 0 -4 -10 -15 -22z m57 19 c0 -2 -12 -14 -27 -28 l-28 -24 24 28 c23 25
31 32 31 24z m40 0 c0 -2 -10 -12 -22 -23 l-23 -19 19 23 c18 21 26 27 26 19z
m-42 -74 c-23 -24 -24 -30 -12 -41 12 -11 18 -11 32 -1 15 11 15 11 -1 -6 -17
-19 -17 -19 -38 2 l-22 21 29 26 c38 34 44 33 12 -1z m62 24 c0 -2 -12 -14
-27 -28 l-28 -24 24 28 c23 25 31 32 31 24z m30 -10 c0 -2 -12 -14 -27 -28
l-28 -24 24 28 c23 25 31 32 31 24z m20 -50 c0 -2 -12 -14 -27 -28 l-28 -24
24 28 c23 25 31 32 31 24z m-67 -29 c-18 -20 -19 -25 -7 -36 8 -7 19 -10 24
-7 6 3 7 -1 4 -9 -8 -21 4 -20 30 1 18 14 17 13 -2 -7 l-22 -25 -38 39 c-20
21 -32 36 -26 33 6 -4 19 2 29 13 10 11 20 20 23 20 3 0 -4 -10 -15 -22z m97
19 c0 -2 -10 -12 -22 -23 l-23 -19 19 23 c18 21 26 27 26 19z m56 -60 c-2 -7
-5 -4 -5 6 -1 10 -5 15 -11 12 -6 -3 -7 1 -4 9 7 19 -7 21 -26 4 -8 -7 -6 -3
5 10 l19 23 14 -26 c7 -14 11 -32 8 -38z m-46 0 c0 -2 -10 -12 -22 -23 l-23
-19 19 23 c18 21 26 27 26 19z m30 -11 c0 -2 -8 -10 -17 -17 -16 -13 -17 -12
-4 4 13 16 21 21 21 13z m-71 -52 c7 5 9 1 5 -8 -8 -21 4 -20 30 1 18 15 18
14 -1 -7 -22 -23 -23 -23 -43 -5 -11 10 -20 23 -20 29 0 6 4 5 9 -3 5 -7 14
-11 20 -7z m82 -21 c-6 -10 -11 -14 -11 -9 0 5 -8 2 -17 -5 -10 -7 -7 -1 6 14
26 29 39 30 22 0z m-307 -9 c3 -8 2 -12 -4 -9 -6 3 -10 10 -10 16 0 14 7 11
14 -7z m259 -26 c3 -10 7 -10 20 1 30 24 18 6 -15 -25 -18 -16 -26 -21 -19
-11 11 14 11 20 1 32 -8 9 -8 15 -2 15 6 0 12 -6 15 -12z m-228 -18 c10 -11
16 -20 13 -20 -3 0 -13 9 -23 20 -10 11 -16 20 -13 20 3 0 13 -9 23 -20z"/>
</g>
</svg>
